<?xml version="1.0" encoding="UTF-8"?>
<svg version="1.1" viewBox="0 0 416.73 492.7" xmlns="http://www.w3.org/2000/svg">
 <g transform="translate(6405.6 5320.4)">
  <g transform="matrix(3.1072 0 0 3.1072 13318 9662.4)">
   <g fill="#00e5e5">
    <path d="m-6306-4814.5 15 38.8-26.7 17.8z"/>
    <path d="m-6262.3-4768.6 28-25.1-12.2 52.4z"/>
   </g>
   <g fill="#414141">
    <path d="m-6310.3-4819.5s-13 64.3-13.2 64.6c-8.4-2.9-21.1 1.6-21.1 1.6z"/>
    <path d="m-6271.7-4785 8.4-26.1 15.4 24.9-16.1 14.3z"/>
    <path d="m-6295.1-4795.2 28.7-17.1s-8.4 26-8.5 26.1c-0.2 0.1-13.4 8.6-13.4 8.6l-6.8-17.6z"/>
    <path d="m-6243.1-4734.9 14.3-61.5c0.5 16.6 12.5 68.8 12.5 68.8z"/>
    <path d="m-6274.8-4780.3-41.9 27.8 23.2 52.1 44.2-35.4z"/>
   </g>
  </g>
  <g transform="translate(-6719.8 -4991.2)" fill="#414141" stroke="#414141">
   <polygon transform="matrix(1.151 0 0 1.2509 -41.958 -38.339)" points="353.9 101.4 338.7 143.3 323.5 101.4 317.8 101.4 336.4 152.7 338.5 152.7 338.9 152.7 340.9 152.7 356.2 110.8 371.4 152.7 373.5 152.7 373.9 152.7 375.9 152.7 394.5 101.4 388.8 101.4 373.7 143.3 358.5 101.4 356.4 101.4 355.9 101.4" stroke-width="2.5002"/>
   <g stroke-width="3">
    <path d="m469.9 108.6c-0.3-0.3-0.6-0.7-0.9-1-5.4-5.3-11.9-8-19.5-8s-14.1 2.7-19.4 8-8 11.9-8 19.4 2.7 14.1 8 19.4 11.9 8 19.4 8 14.1-2.7 19.5-8.1c0.3-0.3 0.6-0.6 0.9-1v7.2h5.2v-51.3h-5.2zm-20.4 40.7c-6.2 0-11.4-2.1-15.7-6.5-4.4-4.4-6.5-9.5-6.5-15.7s2.1-11.4 6.5-15.7c4.4-4.4 9.5-6.5 15.7-6.5s11.4 2.1 15.7 6.5c2 2 3.6 4.3 4.7 6.7v18.1c-1.1 2.4-2.6 4.7-4.7 6.7-4.3 4.3-9.5 6.4-15.7 6.4z"/>
    <polygon transform="translate(14)" points="491.9 152.7 491.9 106.7 502.7 106.7 502.7 101.4 491.9 101.4 491.9 88.5 486.6 88.5 486.6 152.7"/>
    <path d="m556.8 104.8c6.2 0 11.4 2.1 15.7 6.5l1.4 1.4 3.8-3.6-1.5-1.5c-5.4-5.3-11.9-8-19.5-8s-14.1 2.7-19.4 8-8 11.9-8 19.4c0 7.6 2.7 14.1 8 19.4s11.9 8 19.4 8c7.3 0 13.7-2.6 19-7.6l1.2-1.2-3.6-3.8-1.2 1.2c-4.3 4.1-9.3 6.1-15.4 6.1-6.2 0-11.4-2.1-15.7-6.5-4.4-4.4-6.5-9.5-6.5-15.7s2.1-11.4 6.5-15.7c4.5-4.2 9.6-6.4 15.8-6.4z"/>
    <path d="m623.2 99.5c-7.1 0-13.2 2.5-18.2 7.5-0.4 0.4-0.8 0.8-1.1 1.2v-19.7h-5.2v64.1h5.2v-34.2l0.1-0.2c0.9-2.8 2.6-5.3 4.8-7.6 4-4 8.7-6 14.4-6s10.4 2 14.4 6 6 8.7 6 14.4v27.5h5.2v-27.5c0-7.1-2.5-13.2-7.5-18.1-4.9-4.9-11-7.4-18.1-7.4z"/>
    <path d="m716.7 101.4v7.2c-0.3-0.3-0.6-0.7-0.9-1-5.4-5.3-11.9-8-19.5-8s-14.1 2.7-19.4 8-8 11.9-8 19.4 2.7 14.1 8 19.4 11.9 8 19.4 8 14.1-2.7 19.5-8.1c0.3-0.3 0.6-0.6 0.9-1v7.2h5.2v-51.3h-5.2zm-20.4 47.9c-6.2 0-11.4-2.1-15.7-6.5-4.4-4.4-6.5-9.5-6.5-15.7s2.1-11.4 6.5-15.7c4.4-4.4 9.5-6.5 15.7-6.5s11.4 2.1 15.7 6.5c2 2 3.6 4.3 4.7 6.7v18.1c-1.1 2.4-2.6 4.7-4.7 6.7-4.3 4.3-9.4 6.4-15.7 6.4z"/>
   </g>
  </g>
 </g>
</svg>
