<?xml version="1.0" encoding="UTF-8"?>
<svg version="1.1" viewBox="0 0 100 100" xmlns="http://www.w3.org/2000/svg">
 <g transform="translate(0,-197)">
  <g transform="matrix(.77293 0 0 .77293 4904.3 3926.1)">
   <g fill="#00e5e5">
    <path d="m-6306-4814.5 15 38.8-26.7 17.8z"/>
    <path d="m-6262.3-4768.6 28-25.1-12.2 52.4z"/>
   </g>
   <g fill="#414141">
    <path d="m-6310.3-4819.5s-13 64.3-13.2 64.6c-8.4-2.9-21.1 1.6-21.1 1.6z"/>
    <path d="m-6271.7-4785 8.4-26.1 15.4 24.9-16.1 14.3z"/>
    <path d="m-6295.1-4795.2 28.7-17.1s-8.4 26-8.5 26.1c-0.2 0.1-13.4 8.6-13.4 8.6l-6.8-17.6z"/>
    <path d="m-6243.1-4734.9 14.3-61.5c0.5 16.6 12.5 68.8 12.5 68.8z"/>
    <path d="m-6274.8-4780.3-41.9 27.8 23.2 52.1 44.2-35.4z"/>
   </g>
  </g>
 </g>
</svg>
